<svg width="2739" height="103" viewBox="0 0 2739 103" fill="none" xmlns="http://www.w3.org/2000/svg">
<path d="M2737.02 53.4869C2737.47 53.1704 2738.1 53.2806 2738.41 53.7331C2738.73 54.1857 2738.62 54.8092 2738.17 55.1257L2737.02 53.4869ZM2438 54.3063C2438.59 53.4962 2438.59 53.4962 2438.59 53.4962C2438.59 53.4962 2438.59 53.4962 2438.59 53.4962C2438.59 53.4961 2438.59 53.4961 2438.59 53.4961C2438.59 53.4962 2438.59 53.4962 2438.59 53.4963C2438.59 53.4964 2438.59 53.4967 2438.59 53.497C2438.59 53.4978 2438.59 53.499 2438.59 53.5007C2438.6 53.5042 2438.6 53.5095 2438.61 53.5167C2438.63 53.531 2438.67 53.5529 2438.71 53.5821C2438.79 53.6404 2438.91 53.7279 2439.08 53.843C2439.41 54.0732 2439.9 54.4139 2440.55 54.8524L2439.44 56.5125C2438.78 56.0671 2438.27 55.7197 2437.93 55.4828C2437.76 55.3644 2437.63 55.2736 2437.55 55.212C2437.5 55.1812 2437.47 55.1577 2437.45 55.1418C2437.44 55.1338 2437.43 55.1276 2437.42 55.1234C2437.42 55.1213 2437.42 55.1197 2437.42 55.1185C2437.42 55.1179 2437.42 55.1175 2437.41 55.1171C2437.41 55.117 2437.41 55.1168 2437.41 55.1167C2437.41 55.1166 2437.41 55.1166 2437.41 55.1166C2437.41 55.1165 2437.41 55.1165 2437.41 55.1165C2437.41 55.1165 2437.41 55.1165 2438 54.3063ZM2444.72 57.5572C2445.96 58.338 2447.38 59.2129 2448.98 60.1656L2447.95 61.8823C2446.34 60.9215 2444.91 60.0386 2443.66 59.25L2444.72 57.5572ZM2453.27 62.672C2454.62 63.4444 2456.06 64.2502 2457.59 65.0833L2456.63 66.8382C2455.09 65.9991 2453.64 65.1873 2452.28 64.4089L2453.27 62.672ZM2461.93 67.4067C2463.34 68.1477 2464.81 68.9041 2466.34 69.6722L2465.45 71.4594C2463.91 70.6861 2462.42 69.9245 2461 69.1782L2461.93 67.4067ZM2470.85 71.8858C2472.29 72.5814 2473.78 73.2834 2475.31 73.9891L2474.47 75.8053C2472.93 75.0949 2471.43 74.3883 2469.98 73.688L2470.85 71.8858ZM2479.83 76.0294C2481.33 76.6917 2482.87 77.355 2484.44 78.0174L2483.66 79.8601C2482.08 79.1934 2480.54 78.5257 2479.03 77.8591L2479.83 76.0294ZM2488.98 79.8915C2490.51 80.5064 2492.07 81.1186 2493.65 81.7266L2492.93 83.5937C2491.34 82.9818 2489.77 82.3655 2488.24 81.7466L2488.98 79.8915ZM2498.26 83.4555C2499.81 84.0197 2501.38 84.5787 2502.97 85.1309L2502.32 87.0206C2500.71 86.4647 2499.13 85.902 2497.58 85.3341L2498.26 83.4555ZM2507.65 86.7115C2509.22 87.2247 2510.8 87.7305 2512.41 88.2277L2511.82 90.1381C2510.2 89.6376 2508.6 89.1284 2507.03 88.6118L2507.65 86.7115ZM2517.15 89.6513C2518.73 90.1124 2520.33 90.5645 2521.95 91.0064L2521.42 92.9359C2519.79 92.4909 2518.18 92.0358 2516.59 91.5715L2517.15 89.6513ZM2526.73 92.2663C2528.33 92.674 2529.95 93.0712 2531.58 93.4569L2531.12 95.4035C2529.48 95.0151 2527.85 94.6151 2526.23 94.2045L2526.73 92.2663ZM2536.39 94.5473C2538.01 94.8993 2539.65 95.2394 2541.29 95.5669L2540.9 97.5285C2539.24 97.1987 2537.6 96.8561 2535.97 96.5016L2536.39 94.5473ZM2546.14 96.4843C2547.76 96.777 2549.4 97.0569 2551.05 97.3232L2550.73 99.2977C2549.07 99.0295 2547.42 98.7475 2545.78 98.4526L2546.14 96.4843ZM2555.95 98.0667C2557.58 98.2988 2559.22 98.5172 2560.87 98.7212L2560.62 100.706C2558.96 100.501 2557.31 100.281 2555.67 100.047L2555.95 98.0667ZM2565.81 99.2842C2567.45 99.4542 2569.09 99.6098 2570.74 99.7503L2570.57 101.743C2568.9 101.602 2567.25 101.445 2565.61 101.273L2565.81 99.2842ZM2575.72 100.126C2577.36 100.233 2579 100.325 2580.65 100.401L2580.55 102.399C2578.89 102.322 2577.24 102.229 2575.59 102.122L2575.72 100.126ZM2585.62 100.581C2587.26 100.625 2588.92 100.652 2590.58 100.663L2590.57 102.663C2588.89 102.652 2587.22 102.624 2585.57 102.58L2585.62 100.581ZM2595.53 100.646C2597.19 100.624 2598.86 100.585 2600.53 100.529L2600.6 102.528C2598.91 102.584 2597.23 102.624 2595.56 102.646L2595.53 100.646ZM2605.45 100.313C2607.1 100.225 2608.75 100.119 2610.41 99.9954L2610.56 101.99C2608.89 102.114 2607.22 102.221 2605.56 102.311L2605.45 100.313ZM2615.37 99.576C2617 99.4208 2618.64 99.2482 2620.28 99.0578L2620.51 101.045C2618.85 101.237 2617.2 101.411 2615.56 101.567L2615.37 99.576ZM2625.23 98.4323C2626.86 98.21 2628.49 97.97 2630.12 97.7118L2630.43 99.6873C2628.79 99.9477 2627.14 100.19 2625.51 100.414L2625.23 98.4323ZM2635.01 96.8875C2636.64 96.5949 2638.28 96.2838 2639.92 95.9539L2640.32 97.9147C2638.66 98.2474 2637.01 98.561 2635.36 98.8561L2635.01 96.8875ZM2644.74 94.9349C2646.35 94.577 2647.96 94.2007 2649.58 93.8055L2650.05 95.7484C2648.42 96.1468 2646.79 96.5263 2645.17 96.8872L2644.74 94.9349ZM2654.41 92.573C2655.98 92.1523 2657.57 91.7134 2659.15 91.2559L2659.71 93.1776C2658.11 93.6389 2656.51 94.0814 2654.92 94.5056L2654.41 92.573ZM2663.93 89.827C2665.5 89.3378 2667.08 88.8301 2668.66 88.3034L2669.29 90.2008C2667.7 90.7318 2666.11 91.2437 2664.52 91.7369L2663.93 89.827ZM2673.32 86.697C2674.88 86.1431 2676.44 85.5704 2678 84.9788L2678.71 86.8492C2677.13 87.4456 2675.56 88.0229 2673.99 88.5814L2673.32 86.697ZM2682.63 83.1734C2684.15 82.5643 2685.67 81.937 2687.19 81.2912L2687.97 83.1322C2686.44 83.7831 2684.9 84.4154 2683.38 85.0294L2682.63 83.1734ZM2691.76 79.2979C2693.26 78.6238 2694.77 77.9314 2696.28 77.2203L2697.13 79.0295C2695.61 79.7461 2694.09 80.4439 2692.58 81.1232L2691.76 79.2979ZM2700.71 75.0793C2702.19 74.3476 2703.68 73.5977 2705.16 72.8292L2706.08 74.605C2704.59 75.3792 2703.09 76.1348 2701.6 76.8721L2700.71 75.0793ZM2709.58 70.4874C2711.01 69.7119 2712.44 68.9189 2713.87 68.1081L2714.86 69.8489C2713.41 70.6655 2711.97 71.4644 2710.53 72.2457L2709.58 70.4874ZM2718.18 65.6225C2719.61 64.7761 2721.05 63.9117 2722.48 63.029L2723.53 64.7333C2722.08 65.6222 2720.64 66.4928 2719.19 67.3453L2718.18 65.6225ZM2726.64 60.4263C2728.02 59.5443 2729.41 58.6452 2730.79 57.7288L2731.89 59.3962C2730.5 60.3189 2729.11 61.2242 2727.72 62.1123L2726.64 60.4263ZM2734.94 54.9272C2735.63 54.4515 2736.33 53.9714 2737.02 53.4869L2738.17 55.1257C2737.47 55.6135 2736.77 56.0968 2736.08 56.5757L2734.94 54.9272Z" fill="#C4C4C4"/>
<path d="M300.122 38.0495C300.609 38.3097 301.215 38.1258 301.475 37.6386C301.736 37.1515 301.552 36.5456 301.064 36.2854L300.122 38.0495ZM1 37.1674C1.48367 38.0427 1.48365 38.0427 1.48363 38.0427C1.48363 38.0427 1.48361 38.0427 1.4836 38.0427C1.48359 38.0427 1.48359 38.0427 1.4836 38.0427C1.48362 38.0427 1.48369 38.0427 1.4838 38.0426C1.48401 38.0425 1.48441 38.0423 1.48499 38.042C1.48614 38.0413 1.488 38.0403 1.49058 38.0389C1.49573 38.0361 1.50372 38.0317 1.51455 38.0257C1.53621 38.0139 1.5692 37.9959 1.61343 37.9719C1.70189 37.9239 1.8353 37.8519 2.01288 37.7574C2.36803 37.5683 2.89985 37.2887 3.6021 36.9295L2.69122 35.1489C1.97898 35.5133 1.43747 35.7979 1.07291 35.992C0.890636 36.0891 0.752596 36.1635 0.659572 36.214C0.61306 36.2392 0.577802 36.2585 0.553895 36.2716C0.541942 36.2781 0.532826 36.2831 0.526561 36.2866C0.523428 36.2883 0.521007 36.2896 0.519301 36.2906C0.518448 36.291 0.517773 36.2914 0.517277 36.2917C0.517029 36.2918 0.516826 36.2919 0.516667 36.292C0.516588 36.292 0.51652 36.2921 0.516463 36.2921C0.516434 36.2921 0.5164 36.2921 0.516386 36.2922C0.516354 36.2922 0.516325 36.2922 1 37.1674ZM8.14385 34.6901C9.45487 34.0644 10.9508 33.3662 12.624 32.6087L11.7991 30.7867C10.1133 31.5499 8.60518 32.2538 7.28236 32.8852L8.14385 34.6901ZM17.1986 30.5876C18.6504 29.9614 20.1955 29.3088 21.8306 28.6353L21.0689 26.786C19.4234 27.4638 17.8682 28.1207 16.4065 28.7512L17.1986 30.5876ZM26.4976 26.7558C27.9785 26.1726 29.5188 25.5785 31.1168 24.9764L30.4115 23.1049C28.8043 23.7105 27.2548 24.3082 25.7648 24.8948L26.4976 26.7558ZM35.8076 23.2477C37.3526 22.691 38.9435 22.13 40.579 21.5669L39.9281 19.6759C38.2833 20.242 36.6834 20.8062 35.1295 21.3662L35.8076 23.2477ZM45.2804 19.985C46.8351 19.4737 48.4255 18.9625 50.0504 18.453L49.452 16.5447C47.8181 17.057 46.219 17.571 44.6556 18.085L45.2804 19.985ZM54.8607 16.9812C56.4235 16.5147 58.0152 16.051 59.6348 15.5915L59.0888 13.6674C57.4604 14.1295 55.8601 14.5957 54.2887 15.0647L54.8607 16.9812ZM64.514 14.2433C66.0864 13.8205 67.6828 13.4024 69.3027 12.9902L68.8094 11.052C67.1807 11.4665 65.5756 11.8868 63.9946 12.3119L64.514 14.2433ZM74.2102 11.7772C75.7992 11.3961 77.409 11.0212 79.0389 10.6535L78.5988 8.70256C76.96 9.07224 75.3414 9.44916 73.7437 9.83239L74.2102 11.7772ZM83.9743 9.57615C85.5765 9.23804 87.1968 8.90741 88.8346 8.58511L88.4485 6.62274C86.8016 6.94683 85.1724 7.27928 83.5614 7.61926L83.9743 9.57615ZM93.8005 7.64399C95.4125 7.35019 97.0404 7.06489 98.6838 6.78882L98.3525 4.81645C96.6999 5.09407 95.0629 5.38097 93.4419 5.6764L93.8005 7.64399ZM103.658 5.98933C105.285 5.73965 106.926 5.49939 108.581 5.26923L108.306 3.28829C106.641 3.51977 104.991 3.76139 103.355 4.01247L103.658 5.98933ZM113.558 4.61335C115.2 4.40894 116.854 4.21479 118.521 4.03153L118.303 2.0435C116.626 2.22782 114.962 2.42309 113.311 2.62868L113.558 4.61335ZM123.496 3.52111C125.152 3.36331 126.82 3.21654 128.499 3.08141L128.338 1.08785C126.649 1.22378 124.972 1.37141 123.306 1.53013L123.496 3.52111ZM133.466 2.71825C135.132 2.60873 136.809 2.51094 138.496 2.42544L138.395 0.428C136.698 0.514018 135.011 0.612389 133.335 0.722552L133.466 2.71825ZM143.463 2.21072C145.125 2.15131 146.795 2.10407 148.475 2.06949L148.434 0.069916C146.744 0.104699 145.063 0.152231 143.392 0.211993L143.463 2.21072ZM153.48 2.00462C155.135 1.99581 156.799 1.99954 158.47 2.01628L158.49 0.0163781C156.809 -0.000462532 155.135 -0.00421202 153.47 0.00464952L153.48 2.00462ZM163.508 2.106C165.156 2.14823 166.811 2.20332 168.473 2.27172L168.556 0.273413C166.883 0.204582 165.218 0.149145 163.559 0.106655L163.508 2.106ZM173.48 2.5172C175.139 2.61169 176.805 2.71966 178.477 2.84153L178.623 0.846818C176.94 0.724172 175.263 0.615523 173.593 0.520437L173.48 2.5172ZM183.447 3.24336C185.11 3.39111 186.778 3.55283 188.453 3.72891L188.662 1.73988C186.977 1.56266 185.297 1.39991 183.624 1.25121L183.447 3.24336ZM193.402 4.28952C195.049 4.48963 196.703 4.70386 198.361 4.93259L198.634 2.95135C196.965 2.72113 195.301 2.50551 193.643 2.3041L193.402 4.28952ZM203.336 5.66042C204.967 5.91271 206.603 6.17924 208.243 6.46037L208.581 4.48912C206.93 4.20615 205.284 3.93787 203.642 3.68393L203.336 5.66042ZM213.177 7.34789C214.811 7.65582 216.449 7.97844 218.091 8.3161L218.494 6.35708C216.841 6.01718 215.192 5.69243 213.547 5.38247L213.177 7.34789ZM222.962 9.35939C224.589 9.72201 226.22 10.0996 227.854 10.4925L228.322 8.54791C226.677 8.1524 225.035 7.7723 223.397 7.40728L222.962 9.35939ZM232.701 11.7002C234.304 12.1139 235.91 12.5425 237.52 12.9864L238.051 11.0584C236.431 10.6116 234.814 10.1801 233.2 9.76363L232.701 11.7002ZM242.356 14.364C243.943 14.8306 245.533 15.3121 247.125 15.809L247.721 13.8998C246.118 13.3996 244.518 12.9148 242.92 12.4452L242.356 14.364ZM251.878 17.3353C253.464 17.8594 255.053 18.3989 256.644 18.9541L257.303 17.0658C255.701 16.5069 254.102 15.9638 252.505 15.4362L251.878 17.3353ZM261.329 20.633C262.884 21.2047 264.442 21.7917 266 22.3942L266.721 20.5287C265.152 19.9223 263.585 19.3314 262.019 18.7558L261.329 20.633ZM270.682 24.2484C272.212 24.8694 273.745 25.5056 275.278 26.1571L276.06 24.3163C274.517 23.6605 272.974 23.0202 271.434 22.3952L270.682 24.2484ZM279.855 28.1457C281.381 28.824 282.909 29.5177 284.438 30.2271L285.28 28.4129C283.741 27.6989 282.203 27.0007 280.667 26.318L279.855 28.1457ZM288.942 32.3613C290.431 33.0815 291.921 33.8168 293.411 34.5674L294.311 32.7812C292.811 32.0258 291.312 31.2858 289.813 30.5609L288.942 32.3613ZM297.884 36.8655C298.63 37.2563 299.376 37.6509 300.122 38.0495L301.064 36.2854C300.314 35.8843 299.563 35.4872 298.812 35.0939L297.884 36.8655Z" fill="#C4C4C4"/>
</svg>
