<svg width="302" height="39" viewBox="0 0 302 39" fill="none" xmlns="http://www.w3.org/2000/svg">
<path d="M300.122 38.0495C300.609 38.3097 301.215 38.1258 301.475 37.6386C301.736 37.1515 301.552 36.5456 301.064 36.2854L300.122 38.0495ZM1 37.1674C1.48367 38.0427 1.48365 38.0427 1.48363 38.0427C1.48363 38.0427 1.48361 38.0427 1.4836 38.0427C1.48359 38.0427 1.48359 38.0427 1.4836 38.0427C1.48362 38.0427 1.48369 38.0427 1.4838 38.0426C1.48401 38.0425 1.48441 38.0423 1.48499 38.042C1.48614 38.0413 1.488 38.0403 1.49058 38.0389C1.49573 38.0361 1.50372 38.0317 1.51455 38.0257C1.53621 38.0139 1.5692 37.9959 1.61343 37.9719C1.70189 37.9239 1.8353 37.8519 2.01288 37.7574C2.36803 37.5683 2.89985 37.2887 3.6021 36.9295L2.69122 35.1489C1.97898 35.5133 1.43747 35.7979 1.07291 35.992C0.890636 36.0891 0.752596 36.1635 0.659572 36.214C0.61306 36.2392 0.577802 36.2585 0.553895 36.2716C0.541942 36.2781 0.532826 36.2831 0.526561 36.2866C0.523428 36.2883 0.521007 36.2896 0.519301 36.2906C0.518448 36.291 0.517773 36.2914 0.517277 36.2917C0.517029 36.2918 0.516826 36.2919 0.516667 36.292C0.516588 36.292 0.51652 36.2921 0.516463 36.2921C0.516434 36.2921 0.5164 36.2921 0.516386 36.2922C0.516354 36.2922 0.516325 36.2922 1 37.1674ZM8.14385 34.6901C9.45487 34.0644 10.9508 33.3662 12.624 32.6087L11.7991 30.7867C10.1133 31.5499 8.60518 32.2538 7.28236 32.8852L8.14385 34.6901ZM17.1986 30.5876C18.6504 29.9614 20.1955 29.3088 21.8306 28.6353L21.0689 26.786C19.4234 27.4638 17.8682 28.1207 16.4065 28.7512L17.1986 30.5876ZM26.4976 26.7558C27.9785 26.1726 29.5188 25.5785 31.1168 24.9764L30.4115 23.1049C28.8043 23.7105 27.2548 24.3082 25.7648 24.8948L26.4976 26.7558ZM35.8076 23.2477C37.3526 22.691 38.9435 22.13 40.579 21.5669L39.9281 19.6759C38.2833 20.242 36.6834 20.8062 35.1295 21.3662L35.8076 23.2477ZM45.2804 19.985C46.8351 19.4737 48.4255 18.9625 50.0504 18.453L49.452 16.5447C47.8181 17.057 46.219 17.571 44.6556 18.085L45.2804 19.985ZM54.8607 16.9812C56.4235 16.5147 58.0152 16.051 59.6348 15.5915L59.0888 13.6674C57.4604 14.1295 55.8601 14.5957 54.2887 15.0647L54.8607 16.9812ZM64.514 14.2433C66.0864 13.8205 67.6828 13.4024 69.3027 12.9902L68.8094 11.052C67.1807 11.4665 65.5756 11.8868 63.9946 12.3119L64.514 14.2433ZM74.2102 11.7772C75.7992 11.3961 77.409 11.0212 79.0389 10.6535L78.5988 8.70256C76.96 9.07224 75.3414 9.44916 73.7437 9.83239L74.2102 11.7772ZM83.9743 9.57615C85.5765 9.23804 87.1968 8.90741 88.8346 8.58511L88.4485 6.62274C86.8016 6.94683 85.1724 7.27928 83.5614 7.61926L83.9743 9.57615ZM93.8005 7.64399C95.4125 7.35019 97.0404 7.06489 98.6838 6.78882L98.3525 4.81645C96.6999 5.09407 95.0629 5.38097 93.4419 5.6764L93.8005 7.64399ZM103.658 5.98933C105.285 5.73965 106.926 5.49939 108.581 5.26923L108.306 3.28829C106.641 3.51977 104.991 3.76139 103.355 4.01247L103.658 5.98933ZM113.558 4.61335C115.2 4.40894 116.854 4.21479 118.521 4.03153L118.303 2.0435C116.626 2.22782 114.962 2.42309 113.311 2.62868L113.558 4.61335ZM123.496 3.52111C125.152 3.36331 126.82 3.21654 128.499 3.08141L128.338 1.08785C126.649 1.22378 124.972 1.37141 123.306 1.53013L123.496 3.52111ZM133.466 2.71825C135.132 2.60873 136.809 2.51094 138.496 2.42544L138.395 0.428C136.698 0.514018 135.011 0.612389 133.335 0.722552L133.466 2.71825ZM143.463 2.21072C145.125 2.15131 146.795 2.10407 148.475 2.06949L148.434 0.069916C146.744 0.104699 145.063 0.152231 143.392 0.211993L143.463 2.21072ZM153.48 2.00462C155.135 1.99581 156.799 1.99954 158.47 2.01628L158.49 0.0163781C156.809 -0.000462532 155.135 -0.00421202 153.47 0.00464952L153.48 2.00462ZM163.508 2.106C165.156 2.14823 166.811 2.20332 168.473 2.27172L168.556 0.273413C166.883 0.204582 165.218 0.149145 163.559 0.106655L163.508 2.106ZM173.48 2.5172C175.139 2.61169 176.805 2.71966 178.477 2.84153L178.623 0.846818C176.94 0.724172 175.263 0.615523 173.593 0.520437L173.48 2.5172ZM183.447 3.24336C185.11 3.39111 186.778 3.55283 188.453 3.72891L188.662 1.73988C186.977 1.56266 185.297 1.39991 183.624 1.25121L183.447 3.24336ZM193.402 4.28952C195.049 4.48963 196.703 4.70386 198.361 4.93259L198.634 2.95135C196.965 2.72113 195.301 2.50551 193.643 2.3041L193.402 4.28952ZM203.336 5.66042C204.967 5.91271 206.603 6.17924 208.243 6.46037L208.581 4.48912C206.93 4.20615 205.284 3.93787 203.642 3.68393L203.336 5.66042ZM213.177 7.34789C214.811 7.65582 216.449 7.97844 218.091 8.3161L218.494 6.35708C216.841 6.01718 215.192 5.69243 213.547 5.38247L213.177 7.34789ZM222.962 9.35939C224.589 9.72201 226.22 10.0996 227.854 10.4925L228.322 8.54791C226.677 8.1524 225.035 7.7723 223.397 7.40728L222.962 9.35939ZM232.701 11.7002C234.304 12.1139 235.91 12.5425 237.52 12.9864L238.051 11.0584C236.431 10.6116 234.814 10.1801 233.2 9.76363L232.701 11.7002ZM242.356 14.364C243.943 14.8306 245.533 15.3121 247.125 15.809L247.721 13.8998C246.118 13.3996 244.518 12.9148 242.92 12.4452L242.356 14.364ZM251.878 17.3353C253.464 17.8594 255.053 18.3989 256.644 18.9541L257.303 17.0658C255.701 16.5069 254.102 15.9638 252.505 15.4362L251.878 17.3353ZM261.329 20.633C262.884 21.2047 264.442 21.7917 266 22.3942L266.721 20.5287C265.152 19.9223 263.585 19.3314 262.019 18.7558L261.329 20.633ZM270.682 24.2484C272.212 24.8694 273.745 25.5056 275.278 26.1571L276.06 24.3163C274.517 23.6605 272.974 23.0202 271.434 22.3952L270.682 24.2484ZM279.855 28.1457C281.381 28.824 282.909 29.5177 284.438 30.2271L285.28 28.4129C283.741 27.6989 282.203 27.0007 280.667 26.318L279.855 28.1457ZM288.942 32.3613C290.431 33.0815 291.921 33.8168 293.411 34.5674L294.311 32.7812C292.811 32.0258 291.312 31.2858 289.813 30.5609L288.942 32.3613ZM297.884 36.8655C298.63 37.2563 299.376 37.6509 300.122 38.0495L301.064 36.2854C300.314 35.8843 299.563 35.4872 298.812 35.0939L297.884 36.8655Z" fill="#C4C4C4"/>
</svg>
