<svg width="302" height="50" viewBox="0 0 302 50" fill="none" xmlns="http://www.w3.org/2000/svg">
<path d="M300.02 0.486926C300.473 0.170352 301.096 0.280579 301.413 0.733126C301.729 1.18567 301.619 1.80917 301.167 2.12574L300.02 0.486926ZM1 1.30634C1.58626 0.49621 1.58623 0.496193 1.58621 0.496178C1.58621 0.496176 1.58619 0.496162 1.58618 0.496157C1.58617 0.496147 1.58617 0.496145 1.58617 0.49615C1.58619 0.49616 1.58624 0.496199 1.58634 0.496269C1.58653 0.496409 1.58689 0.496668 1.58741 0.497047C1.58846 0.497804 1.59017 0.499039 1.59255 0.500747C1.59729 0.504165 1.60468 0.50948 1.61469 0.516667C1.63473 0.531042 1.6653 0.552907 1.70631 0.582067C1.78833 0.640386 1.91211 0.727882 2.07697 0.84299C2.40668 1.07321 2.90066 1.41386 3.55333 1.85241L2.43788 3.51246C1.77502 3.06706 1.2712 2.71966 0.93199 2.48281C0.762386 2.36439 0.633931 2.2736 0.547325 2.21202C0.504022 2.18123 0.471181 2.15774 0.448888 2.14175C0.437742 2.13375 0.429233 2.12763 0.423372 2.12341C0.420441 2.1213 0.418173 2.11966 0.416567 2.1185C0.415765 2.11792 0.415128 2.11746 0.414657 2.11712C0.414422 2.11695 0.414228 2.11681 0.414076 2.1167C0.414 2.11665 0.413934 2.1166 0.413878 2.11656C0.413851 2.11654 0.413817 2.11651 0.413803 2.1165C0.413772 2.11648 0.413743 2.11646 1 1.30634ZM7.72165 4.55722C8.96236 5.33799 10.3832 6.21294 11.9769 7.16559L10.9507 8.88226C9.34351 7.92152 7.90964 7.03857 6.65644 6.24995L7.72165 4.55722ZM16.2685 9.67198C17.6216 10.4444 19.0617 11.2502 20.5859 12.0833L19.6267 13.8382C18.0914 12.9991 16.6406 12.1873 15.277 11.4089L16.2685 9.67198ZM24.9279 14.4067C26.3423 15.1477 27.8149 15.9041 29.3442 16.6722L28.4465 18.4594C26.9068 17.6861 25.424 16.9245 23.9997 16.1782L24.9279 14.4067ZM33.8465 18.8858C35.2921 19.5814 36.7807 20.2834 38.3111 20.9891L37.4736 22.8053C35.933 22.0949 34.4345 21.3883 32.9793 20.688L33.8465 18.8858ZM42.833 23.0294C44.3333 23.6917 45.869 24.355 47.4391 25.0174L46.6618 26.8601C45.0813 26.1934 43.5355 25.5257 42.0253 24.8591L42.833 23.0294ZM51.9841 26.8915C53.51 27.5064 55.0651 28.1186 56.6487 28.7266L55.9319 30.5937C54.3378 29.9818 52.7725 29.3655 51.2366 28.7466L51.9841 26.8915ZM61.2641 30.4555C62.8083 31.0197 64.3773 31.5787 65.9703 32.1309L65.3153 34.0206C63.7116 33.4647 62.1322 32.902 60.5777 32.3341L61.2641 30.4555ZM70.6547 33.7115C72.218 34.2247 73.8026 34.7305 75.408 35.2277L74.8163 37.1381C73.2 36.6376 71.6047 36.1284 70.0309 35.6118L70.6547 33.7115ZM80.1452 36.6513C81.7279 37.1124 83.3294 37.5645 84.9491 38.0064L84.4226 39.9359C82.7918 39.4909 81.1793 39.0358 79.5857 38.5715L80.1452 36.6513ZM89.7276 39.2663C91.3298 39.674 92.9486 40.0712 94.5836 40.4569L94.1245 42.4035C92.4779 42.0151 90.8477 41.6151 89.2344 41.2045L89.7276 39.2663ZM99.3944 41.5473C101.013 41.8993 102.646 42.2394 104.294 42.5669L103.905 44.5285C102.245 44.1987 100.6 43.8561 98.9694 43.5016L99.3944 41.5473ZM109.137 43.4843C110.762 43.777 112.401 44.0569 114.052 44.3232L113.733 46.2977C112.07 46.0295 110.42 45.7475 108.783 45.4526L109.137 43.4843ZM118.947 45.0667C120.577 45.2988 122.217 45.5172 123.87 45.7212L123.625 47.7061C121.96 47.5006 120.307 47.2805 118.665 47.0467L118.947 45.0667ZM128.815 46.2842C130.445 46.4542 132.087 46.6098 133.739 46.7503L133.569 48.7431C131.905 48.6015 130.251 48.4447 128.607 48.2734L128.815 46.2842ZM138.724 47.1258C140.355 47.2328 141.996 47.3246 143.646 47.4008L143.554 49.3986C141.891 49.3219 140.237 49.2293 138.593 49.1216L138.724 47.1258ZM148.619 47.5812C150.264 47.6247 151.919 47.6522 153.581 47.6631L153.568 49.663C151.892 49.652 150.224 49.6243 148.566 49.5805L148.619 47.5812ZM158.532 47.6463C160.191 47.6241 161.857 47.5851 163.531 47.5288L163.598 49.5276C161.911 49.5845 160.231 49.6238 158.559 49.6461L158.532 47.6463ZM168.452 47.3134C170.099 47.2247 171.754 47.1189 173.415 46.9954L173.563 48.9898C171.888 49.1144 170.221 49.2211 168.56 49.3105L168.452 47.3134ZM178.366 46.576C179.999 46.4208 181.637 46.2482 183.282 46.0578L183.512 48.0445C181.854 48.2366 180.201 48.4105 178.555 48.567L178.366 46.576ZM188.234 45.4323C189.857 45.21 191.487 44.97 193.121 44.7118L193.433 46.6873C191.785 46.9477 190.142 47.1896 188.505 47.4138L188.234 45.4323ZM198.01 43.8875C199.643 43.5949 201.28 43.2838 202.922 42.9539L203.316 44.9147C201.66 45.2474 200.009 45.561 198.363 45.8561L198.01 43.8875ZM207.737 41.9349C209.346 41.577 210.96 41.2007 212.577 40.8055L213.052 42.7484C211.421 43.1468 209.794 43.5263 208.171 43.8872L207.737 41.9349ZM217.405 39.573C218.985 39.1523 220.568 38.7134 222.155 38.2559L222.709 40.1776C221.109 40.6389 219.513 41.0814 217.92 41.5056L217.405 39.573ZM226.925 36.827C228.5 36.3378 230.077 35.8301 231.658 35.3034L232.29 37.2008C230.696 37.7318 229.106 38.2437 227.519 38.7369L226.925 36.827ZM236.321 33.697C237.878 33.1431 239.438 32.5704 241.001 31.9788L241.709 33.8492C240.134 34.4456 238.561 35.0229 236.991 35.5814L236.321 33.697ZM245.63 30.1734C247.147 29.5643 248.666 28.937 250.188 28.2912L250.969 30.1322C249.435 30.7831 247.904 31.4154 246.375 32.0294L245.63 30.1734ZM254.758 26.2979C256.264 25.6238 257.771 24.9314 259.28 24.2203L260.133 26.0295C258.612 26.7461 257.093 27.4439 255.576 28.1232L254.758 26.2979ZM263.715 22.0793C265.195 21.3476 266.676 20.5977 268.159 19.8292L269.079 21.605C267.585 22.3792 266.092 23.1348 264.601 23.8721L263.715 22.0793ZM272.577 17.4874C274.007 16.7119 275.439 15.9189 276.873 15.1081L277.857 16.8489C276.414 17.6655 274.971 18.4644 273.53 19.2457L272.577 17.4874ZM281.175 12.6225C282.611 11.7761 284.047 10.9117 285.484 10.029L286.531 11.7333C285.083 12.6222 283.637 13.4928 282.191 14.3453L281.175 12.6225ZM289.641 7.4263C291.023 6.54432 292.406 5.64524 293.79 4.72881L294.894 6.39622C293.501 7.31891 292.109 8.22419 290.717 9.1123L289.641 7.4263ZM297.943 1.92724C298.635 1.45154 299.327 0.971448 300.02 0.486926L301.167 2.12574C300.469 2.61349 299.772 3.09679 299.075 3.57567L297.943 1.92724Z" fill="#C4C4C4"/>
</svg>
